#!OML:ASF H:\Terrain\Patient Classification 1\Terrain2\Thursday\justin.ASF
:FULLY-SPECIFIED
:DEGREES
2230
root 14.7643 21.1228 11.3399 518.036 86.8474 151.705
lowerback 15.2976 -0.796835 -0.298344
upperback 3.54914 -0.781641 2.18126
thorax -4.76964 -0.294241 2.61234
lowerneck -18.8234 -2.38677 -8.81517
upperneck 27.8049 -1.41261 4.38516
head 12.457 -0.825663 2.98501
rclavicle 9.54166e-015 -3.81667e-014
rhumerus -32.5584 -3.02964 -80.4156
rradius 32.0451
rwrist -8.40151
rhand -13.822 11.3829
rfingers 7.12502
rthumb 12.3007 -18.2353
lclavicle 9.54166e-015 -3.81667e-014
lhumerus -30.5013 -0.798719 87.171
lradius 29.8069
lwrist -4.02546
lhand -10.7942 17.5507
lfingers 7.12502
lthumb 15.2187 46.971
rfemur -55.1419 -5.72811 23.467
rtibia 80.4401
rfoot -29.4693 1.76741
rtoes 1.236
lfemur -3.17992 2.2254 -20.705
ltibia 35.8693
lfoot 23.4471 -0.648556
ltoes -20.5214
2231
root 14.8889 21.2896 11.3475 521.534 87.0493 155.454
lowerback 15.3326 -0.71225 -0.0571237
upperback 3.50024 -0.625864 2.27913
thorax -4.84964 -0.219032 2.55066
lowerneck -18.4341 -2.39237 -8.79656
upperneck 27.7925 -1.41342 4.26018
head 12.3722 -0.838316 2.93274
rclavicle 1.37161e-014 1.19271e-014
rhumerus -32.5413 -2.82373 -80.2316
rradius 32.3519
rwrist -8.18634
rhand -13.5278 11.2169
rfingers 7.12502
rthumb 12.5844 -18.3841
lclavicle 1.37161e-014 1.19271e-014
lhumerus -31.0236 -0.694469 87.245
lradius 29.9907
lwrist -3.35103
lhand -11.3498 17.627
lfingers 7.12502
lthumb 14.6835 47.087
rfemur -53.1887 -5.97083 23.821
rtibia 78.7465
rfoot -29.666 1.50438
rtoes -0.841552
lfemur -4.62435 1.66448 -19.9436
ltibia 39.5198
lfoot 22.5962 6.7984
ltoes 7.93622
2232
root 15.0091 21.425 11.3566 521.094 87.1477 155.307
lowerback 15.4089 -0.524412 0.00664372
upperback 3.45443 -0.371867 2.23228
thorax -4.9516 -0.0951602 2.41793
lowerneck -18.1577 -2.47577 -8.61269
upperneck 27.8839 -1.55751 4.10891
head 12.3609 -0.900357 2.82296
rclavicle -1.05356e-014 2.3059e-014
rhumerus -32.5957 -2.96168 -80.0645
rradius 32.7626
rwrist -8.20964
rhand -13.6924 11.2601
rfingers 7.12502
rthumb 12.4257 -18.3505
lclavicle -1.05356e-014 2.3059e-014
lhumerus -31.4593 -1.39543 87.3363
lradius 30.2121
lwrist -2.21741
lhand -11.7411 17.9287
lfingers 7.12502
lthumb 14.3065 47.4158
rfemur -51.3729 -5.88401 23.7432
rtibia 77.2022
rfoot -29.7473 1.56768
rtoes -0.403758
lfemur -6.0352 2.64292 -19.7501
ltibia 43.1987
lfoot 23.0327 5.78061
ltoes 4.88113
2233
root 15.1263 21.56 11.3581 516.305 87.2111 150.804
lowerback 15.4658 -0.404584 -0.209764
upperback 3.46912 -0.243191 2.2943
thorax -4.97063 -0.0287019 2.58237
lowerneck -18.2297 -2.47053 -8.69672
upperneck 28.0975 -1.39655 3.7633
head 12.4509 -0.882969 2.73562
rclavicle 7.95139e-015 3.18055e-015
rhumerus -32.4494 -2.80774 -79.7313
rradius 33.2086
rwrist -8.37166
rhand -13.7157 11.2283
rfingers 7.12502
rthumb 12.4032 -18.3837
lclavicle 7.95139e-015 3.18055e-015
lhumerus -31.7763 -1.58114 87.5892
lradius 30.4002
lwrist -1.05992
lhand -12.1951 18.1804
lfingers 7.12502
lthumb 13.869 47.698
rfemur -49.5954 -5.76979 23.3443
rtibia 75.6616
rfoot -29.71 2.15241
rtoes 1.68335
lfemur -7.41881 3.26094 -19.8332
ltibia 46.8245
lfoot 23.29 5.83505
ltoes 6.02219
2234
root 15.2396 21.6941 11.3553 521.371 87.3943 156.228
lowerback 15.6067 -0.450046 0.0810818
upperback 3.49868 -0.234329 2.51882
thorax -5.01682 -0.0234597 2.65489
lowerneck -18.3421 -2.3963 -9.09555
upperneck 28.3994 -1.11403 3.70475
head 12.5812 -0.8095 2.83445
rclavicle 0 -7.95139e-015
rhumerus -32.1622 -2.4913 -79.385
rradius 33.5065
rwrist -8.48954
rhand -14.2946 11.2167
rfingers 7.12502
rthumb 11.845 -18.4282
lclavicle 0 -7.95139e-015
lhumerus -32.0706 -0.730485 87.7295
lradius 30.5177
lwrist -0.642585
lhand -12.6621 18.2469
lfingers 7.12502
lthumb 13.4189 47.7947
rfemur -47.7332 -5.7554 23.5208
rtibia 74.0637
rfoot -29.6246 2.49671
rtoes 2.44521
lfemur -8.73617 3.72752 -19.3405
ltibia 50.3434
lfoot 23.411 6.22386
ltoes 10.1405
2235
root 15.351 21.8262 11.356 531.456 87.5688 166.81
lowerback 15.9194 -0.520161 0.573841
upperback 3.52257 -0.220556 2.69761
thorax -5.16352 -0.0169009 2.56587
lowerneck -18.278 -2.33219 -9.22778
upperneck 28.6253 -0.955816 3.66403
head 12.6497 -0.759497 2.87296
rclavicle -6.75868e-015 2.54444e-014
rhumerus -31.9009 -2.17965 -79.2038
rradius 33.6721
rwrist -8.68613
rhand -15.6453 11.5893
rfingers 7.12502
rthumb 10.5424 -18.1263
lclavicle -6.75868e-015 2.54444e-014
lhumerus -32.3197 0.291467 87.6201
lradius 30.4847
lwrist -0.718811
lhand -12.8767 18.2556
lfingers 7.12502
lthumb 13.212 47.817
rfemur -45.704 -5.88529 24.0087
rtibia 72.3569
rfoot -29.5375 2.33883
rtoes 1.45337
lfemur -9.93281 4.20016 -18.5812
ltibia 53.9191
lfoot 23.3383 6.05724
ltoes 13.544
2236
root 15.4643 21.9566 11.3629 537.853 87.6096 173.614
lowerback 16.0946 -0.466494 0.85505
upperback 3.51032 -0.0881449 2.79965
thorax -5.27752 0.0473926 2.49026
lowerneck -18.1144 -2.38528 -9.20313
upperneck 28.8064 -0.969732 3.44839
head 12.692 -0.790158 2.78787
rclavicle 4.37326e-015 -2.14687e-014
rhumerus -31.7622 -2.65596 -78.8302
rradius 33.915
rwrist -8.70281
rhand -16.2195 11.9399
rfingers 7.12502
rthumb 9.98837 -17.8031
lclavicle 4.37326e-015 -2.14687e-014
lhumerus -32.6365 0.394322 87.6251
lradius 30.6066
lwrist -0.381302
lhand -13.1335 18.3212
lfingers 7.12502
lthumb 12.9645 47.8984
rfemur -43.798 -6.18326 24.2895
rtibia 70.6391
rfoot -29.3652 2.54495
rtoes 1.45835
lfemur -11.2263 4.48367 -18.0264
ltibia 57.4559
lfoot 22.9279 6.13273
ltoes 16.5403
2237
root 15.5786 22.0889 11.3692 544.722 87.5681 180.759
lowerback 16.0576 -0.423169 1.14314
upperback 3.50863 0.0278266 2.93575
thorax -5.2641 0.102699 2.44715
lowerneck -18.0834 -2.45484 -9.41545
upperneck 29.0821 -0.977518 3.43556
head 12.8034 -0.818781 2.82578
rclavicle 1.59028e-015 1.51076e-014
rhumerus -31.5734 -3.3971 -78.3477
rradius 34.3552
rwrist -8.77273
rhand -16.212 11.7012
rfingers 7.12502
rthumb 9.99566 -18.0414
lclavicle 1.59028e-015 1.51076e-014
lhumerus -32.9475 0.0823272 87.7622
lradius 30.89
lwrist 0.304617
lhand -13.527 18.3111
lfingers 7.12502
lthumb 12.5852 47.912
rfemur -42.048 -6.53283 24.5723
rtibia 68.9027
rfoot -29.1165 2.88977
rtoes 2.0597
lfemur -12.697 4.5618 -17.4137
ltibia 60.9186
lfoot 21.8731 7.06452
ltoes 23.2635
2238
root 15.692 22.2045 11.3652 548.095 87.544 184.485
lowerback 16.0622 -0.494561 1.34416
upperback 3.57264 -0.0209559 3.04603
thorax -5.19724 0.0794015 2.45927
lowerneck -18.326 -2.39277 -9.60157
upperneck 29.4918 -0.769889 3.41
head 13.0106 -0.755535 2.89351
rclavicle 7.95139e-016 -7.95139e-016
rhumerus -31.1853 -3.58089 -78.0477
rradius 34.6911
rwrist -9.22382
rhand -16.8577 11.4286
rfingers 7.12502
rthumb 9.37267 -18.343
lclavicle 7.95139e-016 -7.95139e-016
lhumerus -33.0891 0.567375 87.7178
lradius 30.9689
lwrist 0.469312
lhand -13.761 18.242
lfingers 7.12502
lthumb 12.3595 47.8567
rfemur -40.2838 -6.84882 24.6419
rtibia 67.2874
rfoot -28.9401 3.09539
rtoes 2.3335
lfemur -14.0036 5.82688 -17.3207
ltibia 64.1206
lfoot 21.7818 1.79255
ltoes 3.49833
2239
root 15.8087 22.3245 11.3588 545.898 87.5742 182.69
lowerback 16.1181 -0.487382 1.35468
upperback 3.60536 -0.00726939 3.03804
thorax -5.19318 0.0868266 2.4423
lowerneck -18.3997 -2.36096 -9.45919
upperneck 29.8749 -0.640765 3.12008
head 13.1763 -0.724045 2.78769
rclavicle 2.38542e-015 2.38542e-015
rhumerus -30.8533 -4.19579 -77.7354
rradius 34.766
rwrist -9.61322
rhand -17.8183 11.6732
rfingers 7.12502
rthumb 8.4457 -18.138
lclavicle 2.38542e-015 2.38542e-015
lhumerus -33.336 1.21289 87.569
lradius 31.004
lwrist 0.382641
lhand -14.181 17.8066
lfingers 7.12502
lthumb 11.9545 47.4453
rfemur -38.415 -7.06363 24.4075
rtibia 65.6794
rfoot -28.9034 3.21783
rtoes 1.83863
lfemur -15.1399 6.00656 -17.3163
ltibia 67.1878
lfoot 20.5035 1.31666
ltoes 2.01246
